<?xml version="1.0" standalone="no"?>
<!DOCTYPE svg PUBLIC "-//W3C//DTD SVG 20010904//EN"
 "http://www.w3.org/TR/2001/REC-SVG-20010904/DTD/svg10.dtd">
<svg version="1.0" xmlns="http://www.w3.org/2000/svg"
 width="1024.000000pt" height="1024.000000pt" viewBox="0 0 1024.000000 1024.000000"
 preserveAspectRatio="xMidYMid meet">

<g transform="translate(0.000000,1024.000000) scale(0.100000,-0.100000)"
fill="#000000" stroke="none">
<path d="M0 5120 l0 -5120 5120 0 5120 0 0 5120 0 5120 -5120 0 -5120 0 0
-5120z m5149 3968 c39 -491 186 -2120 231 -2573 11 -110 36 -362 55 -560 19
-198 47 -468 61 -600 16 -151 23 -260 19 -295 -3 -30 -13 -109 -20 -175 -8
-66 -31 -289 -50 -495 -20 -206 -51 -532 -70 -725 -45 -451 -186 -2012 -222
-2443 -15 -182 -30 -329 -34 -325 -3 5 -18 152 -33 328 -51 625 -142 1640
-201 2245 -95 976 -128 1307 -146 1468 l-21 184 26 236 c14 131 35 329 46 442
11 113 24 248 29 300 6 52 26 266 46 475 19 209 44 475 55 590 39 406 70 744
100 1095 17 195 40 454 50 575 11 121 25 291 32 378 7 86 15 157 18 157 3 0
16 -127 29 -282z m-829 -1069 c-41 -16 -100 -39 -130 -51 -138 -54 -368 -175
-505 -265 -220 -146 -361 -259 -531 -428 -220 -219 -360 -403 -505 -664 -79
-142 -75 -152 7 -16 123 206 243 360 420 544 129 134 170 162 71 48 -178 -204
-320 -404 -431 -605 -60 -110 -131 -268 -141 -317 l-6 -30 21 35 c12 19 55 98
97 175 230 426 525 759 888 1004 266 179 522 294 780 351 107 23 116 24 91 5
-17 -13 -18 -15 -3 -15 14 0 16 -6 12 -30 -3 -17 -1 -39 5 -50 6 -11 6 -21 1
-24 -8 -6 -6 -53 4 -83 2 -7 -1 -15 -7 -19 -7 -4 -6 -9 3 -15 11 -7 10 -9 -3
-9 -9 0 -20 -5 -24 -11 -5 -8 2 -10 23 -7 29 4 29 3 16 -21 -7 -15 -13 -40
-13 -57 0 -16 -9 -57 -19 -90 -11 -32 -22 -72 -25 -87 -4 -15 -14 -31 -24 -34
-75 -26 -296 -135 -400 -198 -179 -106 -298 -198 -439 -338 -68 -67 -123 -118
-123 -113 0 31 -161 -172 -224 -282 -19 -31 -64 -109 -101 -172 -183 -310
-253 -621 -242 -1079 5 -256 31 -410 101 -625 85 -259 218 -481 433 -726 102
-116 149 -164 291 -294 29 -26 52 -50 50 -52 -6 -6 -229 163 -312 237 -70 62
-64 55 39 -50 l120 -123 -90 57 c-49 32 -106 70 -125 85 -76 58 -80 45 -15
-54 44 -66 44 -67 13 -40 -53 47 -149 153 -219 244 -219 282 -357 577 -464
995 -29 112 -34 123 -34 83 -2 -116 66 -369 148 -556 91 -207 238 -460 356
-611 116 -150 321 -331 479 -423 68 -40 166 -83 166 -73 0 2 -31 28 -70 56
-38 29 -68 55 -65 57 2 3 10 0 17 -5 7 -6 75 -43 152 -83 111 -58 156 -75 230
-90 176 -36 282 -87 401 -196 36 -33 115 -142 135 -186 30 -65 26 -105 -15
-156 -18 -24 -32 -49 -29 -57 15 -37 -66 -103 -161 -130 -83 -25 -321 -13
-453 21 -237 62 -555 282 -920 639 -249 242 -431 508 -596 871 -126 276 -187
512 -263 1004 -23 154 -23 466 1 645 74 556 284 1049 637 1496 105 134 345
372 479 475 300 232 617 398 965 505 145 45 177 49 75 8z m1655 0 c312 -75
724 -287 1024 -527 115 -92 342 -317 428 -425 225 -281 397 -584 512 -905 45
-123 112 -363 110 -389 0 -4 -22 55 -48 132 -48 144 -162 428 -168 421 -2 -2
28 -95 67 -207 116 -332 167 -567 191 -881 29 -398 -45 -856 -203 -1253 -334
-838 -1084 -1527 -1927 -1770 -163 -47 -218 -53 -101 -11 436 155 839 399
1162 706 110 103 253 264 347 388 71 94 191 280 191 296 0 5 -33 -38 -72 -97
-143 -209 -356 -441 -563 -612 -46 -38 -34 -22 55 71 203 211 332 373 458 575
66 106 152 283 152 312 0 7 -15 -13 -32 -43 -312 -550 -727 -959 -1229 -1211
-197 -98 -453 -187 -624 -214 -110 -18 -110 -18 -96 -2 6 8 9 16 6 18 -2 3 0
41 6 85 5 43 11 94 13 112 2 18 12 40 22 47 16 13 17 16 4 24 -12 8 -12 12 2
28 9 10 15 27 14 38 -2 11 0 28 5 37 5 9 12 47 16 85 l8 68 115 41 c244 86
425 183 628 334 85 64 337 306 401 385 29 36 30 36 10 5 -12 -19 -51 -73 -87
-119 -80 -105 -42 -80 55 36 242 292 410 640 483 1003 58 289 61 582 9 853
-37 200 -163 548 -203 563 -9 3 -16 11 -16 16 0 13 -113 198 -118 193 -2 -1
14 -38 36 -81 144 -287 208 -565 216 -939 2 -88 2 -137 0 -110 -21 286 -49
440 -119 653 -102 310 -271 597 -474 806 -90 92 -300 260 -484 387 -232 158
-320 236 -362 320 -28 55 -42 119 -26 119 28 0 6 18 -44 35 -39 13 -54 23 -51
32 3 8 2 11 -3 8 -5 -3 -12 -1 -16 5 -3 5 1 10 10 10 9 0 13 5 10 10 -8 13 1
13 59 -5 62 -19 96 -19 96 -1 0 8 18 29 40 46 l40 32 -20 25 c-22 28 -26 53
-9 53 48 0 209 -57 381 -136 55 -25 102 -44 104 -41 3 3 -51 40 -120 83 -69
44 -121 80 -116 82 20 7 267 -81 348 -124 203 -106 402 -260 636 -492 87 -86
155 -150 151 -142 -89 163 -374 465 -590 627 -55 41 -180 122 -279 181 -98 59
-172 108 -163 110 8 2 69 -18 134 -43 155 -61 152 -61 120 -31 -64 59 -266
167 -509 271 -87 37 -158 69 -158 72 0 5 59 -5 155 -28z m-2555 -1436 c-5 -10
-26 -36 -46 -58 -41 -44 -35 -33 15 33 33 43 50 56 31 25z m180 -3272 c14 -12
21 -21 15 -20 -5 0 -30 18 -55 40 -42 38 -17 25 40 -20z m6109 -2577 c27 -63
90 -123 156 -151 25 -10 45 -20 45 -23 0 -3 -25 -16 -56 -29 -63 -27 -123 -90
-151 -156 -10 -25 -20 -45 -23 -45 -3 0 -16 25 -29 56 -27 63 -90 123 -156
151 -25 10 -45 20 -45 23 0 3 25 16 56 29 63 27 123 90 151 156 10 25 20 45
23 45 3 0 16 -25 29 -56z"/>
</g>
</svg>
