<svg xmlns="http://www.w3.org/2000/svg" version="1.1" xmlns:xlink="http://www.w3.org/1999/xlink" xmlns:svgjs="http://svgjs.dev/svgjs" width="1200" height="800" preserveAspectRatio="none" viewBox="0 0 1200 800"><g mask="url(&quot;#SvgjsMask1037&quot;)" fill="none"><path d="M251.04 650.69 a60.97 60.97 0 1 0 121.94 0 a60.97 60.97 0 1 0 -121.94 0z" fill="rgba(17, 17, 17, 1)"></path><path d="M3.39 774.08 a79.87 79.87 0 1 0 159.74 0 a79.87 79.87 0 1 0 -159.74 0z" stroke="rgba(17, 17, 17, 1)"></path><path d="M944.46 201.01L974.27 201.01L974.27 276.7L944.46 276.7z" fill="rgba(0, 0, 0, 1)"></path><path d="M925.34 89.49L953.58 89.49L953.58 152.82L925.34 152.82z" fill="rgba(17, 17, 17, 1)"></path><path d="M214.27 491.73L214.46 491.73L214.46 491.92L214.27 491.92z" fill="rgba(0, 0, 0, 1)"></path><path d="M212.81 477.86L272.56 477.86L272.56 525.73L212.81 525.73z" stroke="rgba(0, 153, 255, 1)"></path><path d="M772.01 237.95a4.95 4.95 0 1 0-8.06-5.75z" fill="rgba(17, 17, 17, 1)"></path><path d="M921.13 240.54L925.85 240.54L925.85 245.26L921.13 245.26z" fill="rgba(17, 17, 17, 1)"></path><path d="M1010.06 417.14L1089.77 417.14L1089.77 447.61L1010.06 447.61z" fill="rgba(0, 153, 255, 1)"></path><path d="M507.76 160.39L546.47 160.39L546.47 199.1L507.76 199.1z" stroke="rgba(0, 0, 0, 1)"></path><path d="M79.04 287.88a52.53 52.53 0 1 0 60.97-85.56z" fill="rgba(17, 17, 17, 1)"></path><path d="M218.69 568.06a6.75 6.75 0 1 0 13.46-1.16z" stroke="rgba(0, 0, 0, 1)"></path><path d="M124.24 734.34a13.79 13.79 0 1 0 7.24 26.61z" stroke="rgba(17, 17, 17, 1)"></path><path d="M621.03 782.01L664.83 782.01L664.83 825.81L621.03 825.81z" fill="rgba(17, 17, 17, 1)"></path><path d="M1194.47 546.03a30.42 30.42 0 1 0-32.6 51.38z" fill="rgba(0, 153, 255, 1)"></path><path d="M759.91 343.99 a70.43 70.43 0 1 0 140.86 0 a70.43 70.43 0 1 0 -140.86 0z" stroke="rgba(0, 0, 0, 1)"></path><path d="M392.28 413.96L435.67 413.96L435.67 470.98L392.28 470.98z" stroke="rgba(0, 153, 255, 1)"></path><path d="M457.58 626.86 a5.38 5.38 0 1 0 10.76 0 a5.38 5.38 0 1 0 -10.76 0z" fill="rgba(17, 17, 17, 1)"></path><path d="M1167.41 611.6a77.79 77.79 0 1 0-108.69-111.32z" stroke="rgba(17, 17, 17, 1)"></path></g><defs><mask id="SvgjsMask1037"><rect width="1200" height="800" fill="#ffffff"></rect></mask></defs></svg>